<svg width="16" height="16" viewBox="0 0 16 16" fill="none" xmlns="http://www.w3.org/2000/svg">
<path d="M12.0463 0H3.95365C1.77011 0 0 1.79951 0 4.01932V11.9807C0 14.2005 1.77011 16 3.95365 16H12.0463C14.2299 16 16 14.2005 16 11.9807V4.01932C16 1.79951 14.2299 0 12.0463 0Z" fill="#F7F7F5"/>
<path d="M6.08532 3.75624H3.27045C2.79609 3.75624 2.41096 4.15515 2.41096 4.6465V9.53239C2.41096 9.91671 2.60978 10.2702 2.93072 10.4599L7.95147 13.4275C8.26928 13.6156 8.67476 13.5118 8.87202 13.1924L9.11781 12.7951C9.24462 12.5907 9.46223 12.4659 9.69706 12.4659H12.6826C13.063 12.4659 13.3699 12.1464 13.3699 11.754V6.69296C13.3699 6.30864 13.171 5.95513 12.8501 5.7654L7.82935 2.79787C7.51155 2.60976 7.10607 2.71355 6.90881 3.033L6.66458 3.42867C6.53777 3.63299 6.32016 3.75786 6.08532 3.75786V3.75624ZM5.28376 7.89133V5.4946C5.28376 5.21892 5.57339 5.04703 5.80352 5.18811L10.1683 7.86214C10.3781 7.99024 10.5065 8.22376 10.5065 8.4751V10.8718C10.5065 11.1475 10.2168 11.3194 9.98669 11.1783L5.62348 8.50429C5.4137 8.37619 5.28532 8.14268 5.28532 7.89133H5.28376Z" fill="#231F20"/>
</svg>
