<svg width="16" height="16" viewBox="0 0 16 16" fill="none"
    xmlns="http://www.w3.org/2000/svg">
    <rect width="16" height="16" rx="2.71429" fill="#5B39F5"/>
    <path d="M10.216 10.3043C9.58277 10.9134 8.7503 11.2303 7.87339 11.196C6.21601 11.1318 4.86768 9.78322 4.80349 8.12613C4.7695 7.24864 5.08611 6.41646 5.69521 5.78354C6.3046 5.15004 7.12313 4.8009 7.99974 4.8009L9.60804 4.80032V3.00003H8.00062C5.24296 3.00003 3 5.24299 3 7.99977C3 9.33852 3.51906 10.5951 4.4619 11.5376C5.40475 12.4802 6.661 12.9995 7.99974 12.9995C9.33849 12.9995 10.5712 12.4857 11.5143 11.5524C12.4499 10.6267 12.9763 9.39719 12.9986 8.08691H11.1975C11.1751 8.92984 10.8271 9.71641 10.216 10.3043Z" fill="white"/>
    <path d="M11.3701 4.90315C11.3526 5.0051 11.3355 5.10821 11.3195 5.20958C11.2838 5.43469 11.2545 5.65603 11.2327 5.8669C11.2112 6.07458 11.2004 6.2628 11.2004 6.42692L11.1996 7.33984H13.0001V3.00003H11.5499C11.5106 3.10053 11.4531 3.17983 11.3788 3.23618C11.2571 3.32854 11.0779 3.37734 10.831 3.38518L10.3555 3.38664V4.8009L11.3878 4.80148L11.3703 4.90344L11.3701 4.90315Z" fill="#65DE23"/>
</svg>
