<svg width="135" height="50" viewBox="0 0 135 50" fill="none" xmlns="http://www.w3.org/2000/svg">
<path d="M17.7623 4.86281H4.15488C1.86175 4.86281 0 6.70676 0 8.97795V31.5625C0 33.339 0.961148 34.973 2.51261 35.85L26.7835 49.5671C28.3198 50.4366 30.2799 49.9569 31.2335 48.4803L32.4217 46.6438C33.0347 45.6994 34.0867 45.1222 35.2219 45.1222H49.6543C51.4933 45.1222 52.9767 43.6455 52.9767 41.8316V18.4375C52.9767 16.661 52.0155 15.027 50.4641 14.15L26.1932 0.432858C24.6569 -0.436643 22.6967 0.0430819 21.7431 1.51973L20.5625 3.34868C19.9495 4.29314 18.8975 4.87031 17.7623 4.87031V4.86281ZM13.8875 23.9768V12.8982C13.8875 11.6239 15.2875 10.8294 16.4001 11.4815L37.4999 23.8419C38.514 24.4341 39.1346 25.5135 39.1346 26.6753V37.7539C39.1346 39.0282 37.7345 39.8227 36.622 39.1706L15.5297 26.8102C14.5156 26.2181 13.895 25.1387 13.895 23.9768H13.8875Z" fill="#00343A"/>
<path d="M85.9212 45.1409C81.8344 45.1409 78.338 44.4288 75.4394 43.0121C72.5332 41.5954 70.3309 39.3917 68.8249 36.4009C67.3188 33.4101 66.562 29.6098 66.562 25C66.562 18.1939 68.2497 13.1343 71.6326 9.82119C75.0156 6.51559 79.7759 4.85904 85.9212 4.85904C89.2814 4.85904 92.3011 5.42871 94.9726 6.56056C97.6442 7.69241 99.7557 9.39393 101.3 11.6651C102.843 13.9363 103.623 16.7922 103.623 20.2327H95.0332C95.0332 18.4188 94.6623 16.8821 93.9131 15.6378C93.1639 14.3936 92.1195 13.4341 90.7648 12.7745C89.4101 12.1149 87.8359 11.7851 86.0423 11.7851C83.5978 11.7851 81.5847 12.2573 80.0029 13.2017C78.4212 14.1462 77.2557 15.5404 76.5065 17.3694C75.7572 19.1983 75.3864 21.447 75.3864 24.093V25.8545C75.3864 28.5754 75.7648 30.8541 76.5292 32.6906C77.2936 34.527 78.4515 35.9062 79.9954 36.8357C81.5393 37.7651 83.5372 38.2224 85.9817 38.2224C87.8889 38.2224 89.5539 37.9001 90.9615 37.2554C92.3768 36.6108 93.4666 35.6663 94.2234 34.4221C94.9878 33.1703 95.3662 31.6412 95.3662 29.8272H103.615C103.615 33.2677 102.859 36.1236 101.353 38.3948C99.8465 40.666 97.7501 42.36 95.0786 43.4694C92.4071 44.5787 89.3495 45.1409 85.9136 45.1409H85.9212Z" fill="#00343A"/>
<path d="M108.83 44.4594V38.103H118.222V15.1287H108.769V10.3615C110.033 10.249 111.494 9.9567 113.151 9.48447C114.816 9.01225 116.481 8.42758 118.161 7.72298C119.841 7.02588 121.347 6.27632 122.687 5.48177H126.236V38.103H135V44.4594H108.822H108.83Z" fill="#00343A"/>
</svg>
