<svg width="134" height="50" viewBox="0 0 134 50" fill="none" xmlns="http://www.w3.org/2000/svg">
<path d="M17.6307 4.86281H4.12411C1.84796 4.86281 0 6.70676 0 8.97795V31.5625C0 33.339 0.954028 34.973 2.49399 35.85L26.5851 49.5671C28.11 50.4366 30.0556 49.9569 31.0022 48.4803L32.1816 46.6438C32.79 45.6994 33.8342 45.1222 34.961 45.1222H49.2864C51.1119 45.1222 52.5842 43.6455 52.5842 41.8316V18.4375C52.5842 16.661 51.6302 15.027 50.0902 14.15L25.9991 0.432858C24.4742 -0.436643 22.5286 0.0430819 21.5821 1.51973L20.4102 3.34868C19.8017 4.29314 18.7575 4.87031 17.6307 4.87031V4.86281ZM13.7846 23.9768V12.8982C13.7846 11.6239 15.1743 10.8294 16.2786 11.4815L37.2221 23.8419C38.2287 24.4341 38.8447 25.5135 38.8447 26.6753V37.7539C38.8447 39.0282 37.455 39.8227 36.3507 39.1706L15.4147 26.8102C14.4081 26.2181 13.7921 25.1387 13.7921 23.9768H13.7846Z" fill="#F7F7F5"/>
<path d="M85.2847 45.1409C81.2282 45.1409 77.7577 44.4288 74.8806 43.0121C71.9959 41.5954 69.8099 39.3917 68.315 36.4009C66.8202 33.4101 66.0689 29.6098 66.0689 25C66.0689 18.1939 67.7441 13.1343 71.102 9.82119C74.4599 6.51559 79.185 4.85904 85.2847 4.85904C88.6201 4.85904 91.6174 5.42871 94.2691 6.56056C96.9209 7.69241 99.0167 9.39393 100.549 11.6651C102.082 13.9363 102.855 16.7922 102.855 20.2327H94.3292C94.3292 18.4187 93.9611 16.8821 93.2174 15.6378C92.4737 14.3936 91.4371 13.4341 90.0924 12.7745C88.7478 12.1149 87.1853 11.7851 85.4049 11.7851C82.9785 11.7851 80.9803 12.2573 79.4103 13.2017C77.8403 14.1462 76.6834 15.5404 75.9398 17.3694C75.1961 19.1983 74.828 21.447 74.828 24.093V25.8545C74.828 28.5754 75.2036 30.8541 75.9623 32.6906C76.721 34.527 77.8703 35.9062 79.4028 36.8357C80.9353 37.7651 82.9184 38.2224 85.3448 38.2224C87.2379 38.2224 88.8905 37.9001 90.2877 37.2554C91.6925 36.6108 92.7742 35.6663 93.5254 34.4221C94.2841 33.1703 94.6597 31.6412 94.6597 29.8272H102.848C102.848 33.2677 102.097 36.1236 100.602 38.3948C99.1069 40.666 97.026 42.36 94.3743 43.4694C91.7225 44.5787 88.6877 45.1409 85.2772 45.1409H85.2847Z" fill="#F7F7F5"/>
<path d="M108.023 44.4594V38.103H117.346V15.1287H107.963V10.3615C109.218 10.249 110.668 9.9567 112.313 9.48447C113.965 9.01224 115.618 8.42758 117.286 7.72298C118.953 7.02588 120.448 6.27632 121.778 5.48177H125.301V38.103H134V44.4594H108.016H108.023Z" fill="#F7F7F5"/>
</svg>
